<svg xmlns="http://www.w3.org/2000/svg" viewBox="0 0 24 24" role="img" aria-label="Discord">
  <path fill="currentColor" d="M19.54 5.23A16.4 16.4 0 0 0 15.57 4a.07.07 0 0 0-.08.04c-.17.31-.36.72-.49 1.04a15.24 15.24 0 0 0-4.5 0 10.7 10.7 0 0 0-.5-1.04A.08.08 0 0 0 9.92 4c-1.38.24-2.72.66-3.97 1.23a.07.07 0 0 0-.03.03C3.4 9.02 2.7 12.68 3.04 16.3c0 .02.01.05.03.06a16.5 16.5 0 0 0 4.86 2.46.08.08 0 0 0 .09-.03c.37-.5.7-1.04.98-1.6a.08.08 0 0 0-.04-.11 10.88 10.88 0 0 1-1.52-.72.08.08 0 0 1 0-.13c.1-.08.2-.16.3-.24a.08.08 0 0 1 .08 0c3.16 1.45 6.58 1.45 9.7 0a.08.08 0 0 1 .09.01c.1.08.2.16.3.23a.08.08 0 0 1-.01.13c-.49.29-1 .53-1.52.72a.08.08 0 0 0-.04.11c.29.56.62 1.1.98 1.6a.08.08 0 0 0 .09.03 16.45 16.45 0 0 0 4.87-2.46.08.08 0 0 0 .03-.06c.4-4.19-.67-7.82-2.7-11.04a.06.06 0 0 0-.04-.03ZM9.68 14.1c-.95 0-1.73-.88-1.73-1.96 0-1.09.77-1.97 1.73-1.97.96 0 1.74.89 1.73 1.97 0 1.08-.77 1.96-1.73 1.96Zm6.64 0c-.95 0-1.73-.88-1.73-1.96 0-1.09.77-1.97 1.73-1.97.96 0 1.74.89 1.73 1.97 0 1.08-.77 1.96-1.73 1.96Z"/>
</svg>
