<svg xmlns="http://www.w3.org/2000/svg" viewBox="0 0 24 24" role="img" aria-label="Spotify">
  <path fill="currentColor" d="M12 2a10 10 0 1 0 0 20 10 10 0 0 0 0-20Zm4.58 14.42a.62.62 0 0 1-.86.2c-2.36-1.44-5.33-1.77-8.83-.97a.62.62 0 1 1-.28-1.21c3.83-.88 7.12-.49 9.77 1.13.3.18.39.56.2.85Zm1.23-2.73a.78.78 0 0 1-1.08.26c-2.7-1.66-6.82-2.14-10.01-1.17a.78.78 0 1 1-.45-1.5c3.65-1.1 8.19-.57 11.28 1.33.37.22.48.7.26 1.08Zm.1-2.85c-3.24-1.92-8.59-2.1-11.68-1.16a.94.94 0 0 1-.55-1.8c3.55-1.08 9.46-.87 13.19 1.34a.94.94 0 1 1-.96 1.62Z"/>
</svg>
