<svg xmlns="http://www.w3.org/2000/svg" viewBox="0 0 24 24" role="img" aria-label="Steam">
  <path fill="currentColor" d="M12 2a10 10 0 0 0-9.88 8.42l5.36 2.22a2.82 2.82 0 0 1 1.6-.47h.16l2.38-3.45v-.05a3.78 3.78 0 1 1 3.78 3.78h-.09l-3.39 2.42c0 .06.01.13.01.2a2.84 2.84 0 0 1-5.63.52l-3.84-1.6A10 10 0 1 0 12 2Zm-3.6 14.4-1.23-.51a2.1 2.1 0 0 0 3.94-.82 2.1 2.1 0 0 0-2.06-2.1l1.26.53a1.55 1.55 0 1 1-1.91 2.9Zm7-5.22a2.52 2.52 0 1 0 0-5.04 2.52 2.52 0 0 0 0 5.04Zm0-.63a1.9 1.9 0 1 1 0-3.79 1.9 1.9 0 0 1 0 3.79Z"/>
</svg>
